<svg width="152" height="33" viewBox="0 0 152 33" fill="none" xmlns="http://www.w3.org/2000/svg">
<path d="M4.17773 20.5163V26.0306C4.17773 26.183 4.26365 26.3226 4.40011 26.3911L16.8328 32.6467C16.9469 32.7039 17.0813 32.7041 17.1954 32.6468L22.7233 29.8696C23.02 29.7204 23.0197 29.2968 22.7227 29.148L4.76223 20.1553C4.70307 20.1257 4.64157 20.1121 4.58164 20.1121C4.36975 20.1121 4.17773 20.2823 4.17773 20.5163Z" fill="#5041D8"/>
<path d="M4.17773 7.79267V13.2083C4.17773 13.3714 4.26772 13.5212 4.41153 13.5978L27.5972 25.9669C27.8915 26.1238 28.2471 25.9102 28.2465 25.5766L28.2382 20.1557C28.238 19.9928 28.1482 19.8436 28.0045 19.7669L4.82701 7.40301C4.75957 7.36702 4.68868 7.35043 4.61966 7.35043C4.38853 7.35043 4.17773 7.53587 4.17773 7.79267Z" fill="#5041D8"/>
<path d="M15.2402 0.740121L9.82201 3.42973C9.46396 3.60734 9.4635 4.11798 9.82139 4.29638L27.5931 13.1588C27.915 13.3192 28.2932 13.085 28.2932 12.7254V7.38957C28.2932 7.20663 28.1901 7.03934 28.0267 6.95719L15.673 0.741382C15.6045 0.706954 15.53 0.689737 15.4554 0.689737C15.3817 0.689737 15.3079 0.706632 15.2402 0.740121Z" fill="#5041D8"/>
<path d="M150.514 19.1349C150.002 18.5949 149.36 18.1968 148.649 17.9791C147.87 17.7197 147.015 17.4822 146.084 17.2666C145.376 17.1178 144.684 16.9018 144.017 16.6217C143.498 16.3892 143.238 16.0767 143.239 15.6842C143.241 15.4966 143.29 15.3127 143.382 15.1489C143.473 14.9852 143.604 14.847 143.762 14.7468C144.208 14.4701 144.729 14.3391 145.253 14.3718C146.541 14.3718 147.284 14.8646 147.481 15.8501H150.016C150.105 15.8501 150.193 15.8296 150.273 15.7902C150.353 15.7508 150.423 15.6934 150.477 15.6226C150.531 15.5519 150.569 15.4696 150.586 15.3821C150.604 15.2946 150.601 15.2042 150.578 15.118C150.335 14.2029 149.798 13.393 149.05 12.8128C147.954 12.0274 146.625 11.6365 145.279 11.7039C143.856 11.615 142.45 12.0446 141.319 12.9131C140.874 13.2713 140.516 13.7258 140.272 14.2425C140.027 14.7592 139.904 15.3245 139.91 15.8961C139.889 16.4721 140.049 17.0401 140.366 17.5216C140.676 17.967 141.085 18.3349 141.561 18.5968C142.075 18.8844 142.62 19.1142 143.185 19.2821C143.775 19.4614 144.357 19.6136 144.929 19.7386C145.643 19.8826 146.343 20.0848 147.024 20.3432C147.258 20.4304 147.458 20.5915 147.593 20.8024C147.729 21.0133 147.791 21.2624 147.773 21.5122C147.769 21.7149 147.72 21.9142 147.629 22.0955C147.539 22.2769 147.409 22.4357 147.249 22.5603C146.771 22.9045 146.185 23.0664 145.598 23.0168C144.94 23.0463 144.292 22.8524 143.759 22.4665C143.314 22.1457 143.004 21.6721 142.886 21.1363H140.128C140.039 21.1364 139.952 21.1567 139.872 21.1957C139.793 21.2348 139.723 21.2916 139.669 21.3618C139.615 21.4318 139.577 21.5134 139.559 21.6003C139.541 21.6871 139.544 21.777 139.566 21.8629C139.727 22.4596 140.008 23.0172 140.392 23.5014C140.962 24.2073 141.7 24.7575 142.539 25.1008C143.527 25.5035 144.587 25.7001 145.653 25.6782C146.675 25.7028 147.691 25.5111 148.633 25.1157C149.413 24.79 150.083 24.2493 150.567 23.5568C151.012 22.9004 151.237 22.1195 151.211 21.3266C151.264 20.5341 151.015 19.7509 150.514 19.1349Z" fill="#0C111D"/>
<path d="M134.915 17.9802C134.136 17.7209 133.281 17.4834 132.35 17.2678C131.642 17.119 130.95 16.903 130.283 16.6228C129.764 16.3904 129.504 16.0779 129.505 15.6854C129.507 15.4979 129.556 15.3139 129.648 15.1502C129.739 14.9864 129.87 14.8482 130.028 14.748C130.474 14.4713 130.995 14.3403 131.519 14.373C132.807 14.373 133.55 14.8658 133.747 15.8514H136.282C136.371 15.8516 136.459 15.8311 136.539 15.7918C136.619 15.7524 136.689 15.695 136.744 15.6242C136.798 15.5534 136.835 15.471 136.853 15.3834C136.87 15.2958 136.867 15.2055 136.844 15.1192C136.601 14.2041 136.064 13.3942 135.316 12.8141C134.219 12.0311 132.89 11.6428 131.544 11.7126C130.121 11.6237 128.715 12.0533 127.584 12.9219C127.139 13.28 126.781 13.7346 126.537 14.2512C126.293 14.7679 126.169 15.3333 126.175 15.9048C126.155 16.4809 126.314 17.0488 126.631 17.5303C126.941 17.9757 127.35 18.3436 127.826 18.6055C128.34 18.8931 128.885 19.123 129.45 19.2908C130.04 19.4702 130.622 19.6223 131.194 19.7473C131.908 19.8913 132.608 20.0935 133.289 20.352C133.523 20.4391 133.723 20.6002 133.858 20.8112C133.994 21.022 134.057 21.2711 134.038 21.521C134.034 21.7236 133.985 21.923 133.895 22.1042C133.804 22.2855 133.674 22.4443 133.514 22.569C133.036 22.9131 132.45 23.075 131.863 23.0255C131.206 23.0549 130.558 22.861 130.024 22.4752C129.579 22.1544 129.268 21.6808 129.151 21.1451H126.393C126.304 21.1451 126.217 21.1654 126.137 21.2045C126.058 21.2436 125.988 21.3003 125.934 21.3704C125.88 21.4406 125.842 21.5222 125.824 21.6091C125.807 21.6959 125.809 21.7857 125.831 21.8715C125.992 22.4684 126.273 23.026 126.657 23.5102C127.227 24.2161 127.965 24.7662 128.804 25.1094C129.792 25.5123 130.852 25.7088 131.919 25.6869C132.94 25.7115 133.956 25.5198 134.899 25.1244C135.678 24.7988 136.348 24.2581 136.832 23.5655C137.277 22.909 137.502 22.1282 137.476 21.3354C137.529 20.543 137.279 19.7602 136.778 19.1446C136.268 18.6018 135.626 18.2006 134.915 17.9802Z" fill="#0C111D"/>
<path d="M120.097 20.257C119.949 20.7874 119.676 21.2768 119.296 21.6802C118.996 22.0009 118.634 22.2561 118.231 22.4299C117.828 22.6035 117.393 22.6921 116.955 22.6898C116.518 22.6928 116.086 22.6046 115.685 22.4307C115.284 22.2569 114.924 22.0013 114.628 21.6802C114.244 21.266 113.971 20.7641 113.827 20.2207C113.748 19.8937 113.549 18.8776 113.73 17.4595C113.853 16.7967 114.155 16.1776 114.611 15.6745C114.911 15.3558 115.272 15.1017 115.674 14.9281C116.075 14.7544 116.507 14.6649 116.944 14.6649C117.382 14.6649 117.814 14.7544 118.215 14.9281C118.616 15.1017 118.978 15.3558 119.277 15.6745C119.754 16.1927 120.067 16.8367 120.183 17.5263C120.187 17.5514 120.192 17.5818 120.197 17.6172C120.208 17.6979 120.219 17.7789 120.225 17.8607C120.225 17.8612 120.226 17.8618 120.226 17.8624C120.277 18.369 120.313 19.271 120.097 20.257ZM123.723 17.7969C123.709 17.641 123.688 17.4863 123.664 17.3322C123.662 17.3153 123.66 17.2989 123.658 17.2818C123.655 17.2582 123.649 17.2378 123.644 17.2156C123.51 16.4492 123.249 15.7092 122.866 15.0287C122.288 14.002 121.442 13.1513 120.419 12.5669C119.356 11.9842 118.162 11.6787 116.95 11.6787C115.738 11.6787 114.545 11.9842 113.481 12.5669C112.456 13.1527 111.607 14.0024 111.021 15.0277C110.582 15.7942 110.3 16.6383 110.184 17.5119C110.184 17.512 110.182 17.5128 110.182 17.5128C110.182 17.5128 110.016 18.3927 110.227 19.9268C110.224 19.9562 110.223 19.9858 110.227 20.0154C110.249 20.1609 110.277 20.305 110.309 20.4484C110.311 20.4595 110.312 20.4698 110.314 20.4809C110.319 20.509 110.327 20.5334 110.334 20.5598C110.479 21.1773 110.711 21.7723 111.024 22.3261C111.603 23.3534 112.448 24.2046 113.472 24.7888C114.538 25.3715 115.733 25.6769 116.947 25.6769C118.162 25.6769 119.357 25.3715 120.423 24.7888C121.452 24.2073 122.302 23.3558 122.883 22.3261C123.236 21.7021 123.487 21.0261 123.626 20.3241L123.626 20.324C123.626 20.324 123.627 20.3215 123.627 20.3211C123.627 20.32 123.627 20.3188 123.627 20.3176C123.63 20.3061 123.639 20.2604 123.651 20.1803C123.661 20.1256 123.672 20.0712 123.68 20.0163C123.682 20.0004 123.681 19.9844 123.682 19.9685C123.735 19.5506 123.797 18.7949 123.722 17.8689C123.724 17.8451 123.725 17.8209 123.723 17.7969Z" fill="#0C111D"/>
<path d="M108.861 24.7983L103.531 18.6778L108.834 12.8892C108.873 12.846 108.899 12.7924 108.907 12.735C108.916 12.6775 108.908 12.6187 108.885 12.5656C108.861 12.5126 108.822 12.4676 108.773 12.4362C108.724 12.4048 108.667 12.3883 108.609 12.3886L105.331 12.398C105.207 12.3985 105.084 12.4255 104.971 12.4772C104.858 12.5289 104.757 12.6042 104.676 12.698L99.2236 18.3981L99.1951 7.94601C99.1999 7.74162 98.9826 7.62542 98.7605 7.73604L96.1449 9.0298C96.0237 9.08425 95.9221 9.17408 95.8531 9.28761C95.7844 9.40106 95.7514 9.5328 95.7589 9.66539L95.801 25.0477C95.8012 25.1244 95.8319 25.1978 95.8861 25.2519C95.9405 25.306 96.0137 25.3364 96.0905 25.3364L98.9545 25.328C98.9924 25.3278 99.0298 25.3203 99.0647 25.3057C99.0996 25.291 99.1314 25.2696 99.1581 25.2427C99.1847 25.2159 99.2059 25.184 99.2204 25.1489C99.2346 25.1138 99.2422 25.0762 99.2419 25.0383L99.2253 18.976C100.204 20.0594 103.588 23.8059 104.706 25.013C104.788 25.1061 104.889 25.1806 105.002 25.2317C105.115 25.2828 105.237 25.3092 105.362 25.3092L108.639 25.2998C108.697 25.2998 108.754 25.2829 108.803 25.2513C108.851 25.2196 108.89 25.1745 108.913 25.1214C108.937 25.0682 108.944 25.0095 108.935 24.9521C108.926 24.8947 108.9 24.8413 108.861 24.7983Z" fill="#0C111D"/>
<path d="M92.859 20.9033C92.8032 20.8266 92.7297 20.7645 92.6451 20.7219C92.5604 20.6793 92.4667 20.6576 92.3721 20.6586L89.5249 20.666C89.3741 21.2918 88.9971 21.8396 88.4665 22.2034C87.9141 22.5712 87.2624 22.7609 86.599 22.7472C86.142 22.7541 85.689 22.662 85.2707 22.4775C84.8526 22.2928 84.4793 22.02 84.1761 21.6776C83.528 20.8174 83.176 19.7701 83.173 18.6928C83.1699 17.6154 83.516 16.5662 84.1592 15.7024C84.694 15.1179 85.4189 14.743 86.2045 14.6447C86.9901 14.5465 87.785 14.7313 88.4468 15.1662C88.9732 15.5271 89.3521 16.066 89.5135 16.6838L92.3692 16.6764C92.4631 16.6764 92.5555 16.6542 92.6391 16.6117C92.7228 16.5692 92.7953 16.5075 92.8507 16.4317C92.906 16.3559 92.9428 16.2681 92.9579 16.1754C92.973 16.0828 92.9661 15.9878 92.9376 15.8983C92.5768 14.7469 91.8655 13.7371 90.9035 13.0101C89.6556 12.0993 88.1386 11.6342 86.5953 11.6893C85.3368 11.6665 84.0949 11.9763 82.9942 12.5873C81.9641 13.1739 81.1152 14.0331 80.5403 15.0705C79.9521 16.1918 79.6462 17.44 79.6499 18.7066C79.6534 19.9732 79.9663 21.2196 80.5611 22.3375C81.1413 23.3717 81.9947 24.226 83.028 24.8067C84.1317 25.4117 85.3756 25.7147 86.6336 25.6851C88.1828 25.7307 89.7006 25.2418 90.9324 24.3005C91.8713 23.5687 92.5714 22.5737 92.9432 21.4422C92.9732 21.3522 92.9809 21.2563 92.9663 21.1626C92.9516 21.0688 92.915 20.98 92.859 20.9033Z" fill="#0C111D"/>
<path d="M74.0986 20.2417C73.9502 20.7722 73.6773 21.2615 73.2971 21.665C72.9975 21.9857 72.6347 22.2408 72.2319 22.4146C71.829 22.5883 71.3946 22.6768 70.9559 22.6747C70.5193 22.6776 70.0869 22.5894 69.6863 22.4155C69.2856 22.2417 68.9257 21.986 68.6295 21.665C68.2453 21.2508 67.9719 20.7488 67.8286 20.2055C67.7487 19.8784 67.5499 18.8623 67.7308 17.4442C67.8541 16.7815 68.1565 16.1624 68.6126 15.6593C68.9121 15.3405 69.2736 15.0865 69.6748 14.9128C70.0761 14.7392 70.5085 14.6496 70.9457 14.6496C71.3828 14.6496 71.8154 14.7392 72.2166 14.9128C72.6177 15.0865 72.9792 15.3405 73.2787 15.6593C73.755 16.1774 74.0678 16.8214 74.1845 17.511C74.1885 17.5363 74.1929 17.5666 74.1978 17.602C74.2094 17.6827 74.2203 17.7637 74.2264 17.8454C74.2265 17.846 74.2268 17.8465 74.2268 17.8471C74.2778 18.3537 74.314 19.2558 74.0986 20.2417ZM77.7244 17.7816C77.7106 17.6257 77.6896 17.4711 77.6654 17.3169C77.6631 17.3 77.6615 17.2836 77.6592 17.2665C77.6558 17.2429 77.6499 17.2225 77.6455 17.2003C77.5113 16.4339 77.2501 15.694 76.8676 15.0134C76.2888 13.9867 75.4432 13.136 74.4203 12.5517C73.3568 11.9689 72.1637 11.6634 70.9513 11.6634C69.7387 11.6634 68.5459 11.9689 67.4822 12.5517C66.4574 13.1375 65.608 13.9871 65.0218 15.0125C64.5837 15.7789 64.3009 16.623 64.1851 17.4967C64.1849 17.4968 64.1833 17.4975 64.1833 17.4975C64.1833 17.4975 64.0171 18.3774 64.228 19.9115C64.2249 19.941 64.2244 19.9707 64.2285 20.0001C64.2505 20.1456 64.2787 20.2897 64.3101 20.4331C64.312 20.4442 64.3135 20.4545 64.3156 20.4657C64.3206 20.4938 64.3284 20.5182 64.3347 20.5445C64.4806 21.1621 64.7122 21.757 65.0255 22.3109C65.6038 23.3382 66.4495 24.1893 67.4728 24.7735C68.5387 25.3562 69.7338 25.6616 70.9483 25.6616C72.1628 25.6616 73.358 25.3562 74.424 24.7735C75.4528 24.1921 76.3032 23.3406 76.8843 22.3109C77.2372 21.6868 77.4879 21.0108 77.6273 20.3089L77.6274 20.3088C77.6274 20.3088 77.6279 20.3063 77.628 20.3059C77.6283 20.3047 77.6284 20.3035 77.6287 20.3024C77.631 20.2908 77.6399 20.2451 77.6527 20.165C77.6623 20.1104 77.6729 20.056 77.6813 20.0011C77.6835 19.9852 77.6827 19.9691 77.683 19.9532C77.7362 19.5354 77.7979 18.7796 77.723 17.8537C77.7257 17.8298 77.7264 17.8057 77.7244 17.7816Z" fill="#0C111D"/>
<path d="M62.4427 14.8046C62.4846 14.7632 62.5091 14.707 62.5109 14.648L62.5044 12.2257C62.5042 12.1957 62.4981 12.1659 62.4865 12.1382C62.4749 12.1106 62.458 12.0854 62.4368 12.0643C62.4154 12.0431 62.3901 12.0263 62.3623 12.015C62.3346 12.0036 62.3049 11.9978 62.2747 11.9979L58.9033 12.0073L58.893 7.9626C58.8973 7.91606 58.8884 7.86916 58.8675 7.82734C58.8465 7.78552 58.8142 7.75039 58.7744 7.726C58.7344 7.70161 58.6886 7.68891 58.6418 7.68925C58.5951 7.68968 58.5494 7.70316 58.5099 7.72824L55.9512 9.0263C55.8658 9.06563 55.7938 9.1291 55.7439 9.20888C55.694 9.28857 55.6684 9.38115 55.6702 9.47527L55.6759 12.0157L53.46 12.0223C53.4299 12.0224 53.4003 12.0285 53.3726 12.0401C53.3449 12.0516 53.3198 12.0686 53.2986 12.0899C53.2775 12.1112 53.2608 12.1366 53.2494 12.1643C53.2381 12.1921 53.2323 12.2219 53.2324 12.2519L53.239 14.6742C53.239 14.7044 53.2451 14.734 53.2567 14.7617C53.2683 14.7895 53.2852 14.8146 53.3065 14.8358C53.3278 14.8569 53.3531 14.8736 53.3808 14.8851C53.4086 14.8964 53.4384 14.9022 53.4684 14.9021L55.6843 14.8955L55.7002 21.5728C55.6677 22.0724 55.741 22.5732 55.9153 23.0424C56.0896 23.5116 56.361 23.9387 56.7117 24.2956C57.0624 24.6525 57.4844 24.9313 57.9502 25.1136C58.416 25.2959 58.915 25.3777 59.4146 25.3535L62.1756 25.3479C62.2135 25.3479 62.2512 25.3404 62.2861 25.3258C62.3212 25.3113 62.3531 25.2899 62.3798 25.2629C62.4067 25.2361 62.4278 25.2041 62.4423 25.169C62.4568 25.1339 62.4641 25.0962 62.4641 25.0582L62.4576 22.7024C62.4576 22.6645 62.45 22.6269 62.4354 22.5917C62.4209 22.5566 62.3996 22.5248 62.3727 22.498C62.3458 22.4711 62.3139 22.4499 62.2788 22.4355C62.2436 22.4209 62.2059 22.4136 62.1681 22.4137H60.7895C60.5434 22.4367 60.2953 22.4059 60.0624 22.3235C59.8294 22.2409 59.6171 22.1088 59.4402 21.9361C59.2633 21.7634 59.126 21.5542 59.0378 21.3232C58.9496 21.0921 58.9126 20.8447 58.9295 20.5979L58.9135 14.8796L62.2851 14.8702C62.3442 14.8695 62.4005 14.846 62.4427 14.8046Z" fill="#0C111D"/>
<path d="M49.0986 17.9303C48.32 17.671 47.4653 17.4334 46.5343 17.2179C45.8264 17.069 45.1343 16.8531 44.4673 16.5729C43.9478 16.3404 43.6884 16.0279 43.6891 15.6355C43.6913 15.4479 43.7403 15.264 43.8318 15.1002C43.9233 14.9365 44.0542 14.7982 44.2126 14.6981C44.6584 14.4214 45.1792 14.2903 45.7027 14.3231C46.9913 14.3231 47.7341 14.8158 47.9307 15.8014H50.466C50.5551 15.8014 50.643 15.7809 50.723 15.7414C50.803 15.702 50.8729 15.6447 50.9271 15.5739C50.9815 15.5031 51.0188 15.4209 51.0363 15.3333C51.0537 15.2458 51.0509 15.1555 51.0279 15.0693C50.7847 14.1541 50.2481 13.3442 49.5003 12.7641C48.4046 11.9783 47.0752 11.587 45.7289 11.6542C44.3064 11.5654 42.8998 11.9949 41.7691 12.8635C41.3241 13.2217 40.966 13.6761 40.7219 14.1928C40.4777 14.7095 40.3539 15.2749 40.3596 15.8464C40.3397 16.4225 40.4991 16.9905 40.8157 17.4719C41.1264 17.9173 41.5353 18.2852 42.0107 18.5471C42.5252 18.8347 43.0699 19.0645 43.6347 19.2324C44.2254 19.4117 44.807 19.5639 45.3795 19.689C46.0929 19.8329 46.7933 20.0351 47.4737 20.2935C47.7083 20.3807 47.9083 20.5418 48.0435 20.7527C48.1786 20.9636 48.2416 21.2127 48.2229 21.4625C48.2192 21.6652 48.1702 21.8645 48.0796 22.0459C47.9891 22.2272 47.8592 22.386 47.6994 22.5106C47.2209 22.8548 46.6354 23.0167 46.0482 22.9671C45.3907 22.9966 44.7424 22.8027 44.2088 22.4168C43.7644 22.0959 43.4537 21.6224 43.3359 21.0866H40.5806C40.4921 21.0867 40.4046 21.107 40.3251 21.1461C40.2455 21.1851 40.176 21.2419 40.1217 21.3121C40.0676 21.3821 40.03 21.4638 40.0122 21.5506C39.9943 21.6375 39.9965 21.7273 40.0187 21.8132C40.1797 22.4099 40.4608 22.9676 40.8448 23.4517C41.4143 24.1577 42.153 24.7078 42.9923 25.0511C43.9801 25.4538 45.0398 25.6504 46.1063 25.6285C47.1282 25.6531 48.1437 25.4614 49.0864 25.066C49.8639 24.7393 50.5326 24.1984 51.0148 23.5062C51.4598 22.8497 51.6854 22.0689 51.6592 21.276C51.7117 20.4837 51.4624 19.7009 50.9614 19.0852C50.4503 18.546 49.8086 18.1482 49.0986 17.9303Z" fill="#0C111D"/>
</svg>
